# xmcd CD database file
#
# Track frame offsets:
#	300
#	9813
#	24463
#	41336
#	53628
#	64506
#	83279
#	97713
#	116541
#	130426
#	148844
#	165532
#	179991
#	194616
#	213462
#
# Disc length: 3090 seconds
#
# Revision: 0
# Processed by: cddbd v1.5.1PL2 Copyright (c) Steve Scherf et al.
# Submitted via: CDex 1.51
#
DISCID=c40c0e0f
DTITLE=David Paul - Reflections
DYEAR=2005
DGENRE=Country
TTITLE0=Just Another Cosmic Cascade Rag (reprised)
TTITLE1=Missionera
TTITLE2=Beautiful Beverly
TTITLE3=Ella Dijo "Si" (She Said Yes)
TTITLE4=It's Showtime
TTITLE5=Make The World Go Away
TTITLE6=Pickin' Our Way (reprised)
TTITLE7=I'll Fight For Your Love
TTITLE8=Island Dreams (reprised)
TTITLE9=Orange Blossom Special (reprised)
TTITLE10=Dance With Me
TTITLE11=A Father's Love
TTITLE12=Secret Admirer
TTITLE13=Until It's Time For You To Go
TTITLE14=Sexy Tina
EXTD=YEAR: 2005
EXTT0=
EXTT1=
EXTT2=
EXTT3=
EXTT4=
EXTT5=
EXTT6=
EXTT7=
EXTT8=
EXTT9=
EXTT10=
EXTT11=
EXTT12=
EXTT13=
EXTT14=
PLAYORDER=
